<svg id="Layer_1" data-name="Layer 1" xmlns="http://www.w3.org/2000/svg" viewBox="0 0 505.82 505.82"><defs><style>.cls-1{fill:#fff;}.cls-2{fill:#f25f08;}</style></defs><path class="cls-1" d="M254.16,504.32A251.41,251.41,0,0,1,76.39,75.14,251.41,251.41,0,0,1,431.94,430.68,249.76,249.76,0,0,1,254.16,504.32Z" transform="translate(-1.26)"/><path class="cls-2" d="M254.16,3a250,250,0,0,1,97.28,480.18,249.91,249.91,0,0,1-274-407A249.14,249.14,0,0,1,254.16,3m0-3C114.49,0,1.26,113.23,1.26,252.91s113.23,252.91,252.9,252.91S507.07,392.59,507.07,252.91,393.84,0,254.16,0Z" transform="translate(-1.26)"/><path class="cls-1" d="M254.16,489.2A236.29,236.29,0,0,1,87.08,85.83,236.29,236.29,0,1,1,421.25,420,234.75,234.75,0,0,1,254.16,489.2Z" transform="translate(-1.26)"/><path class="cls-2" d="M254.16,17.62a235.35,235.35,0,0,1,91.59,452.09A235.35,235.35,0,0,1,162.58,36.11a233.8,233.8,0,0,1,91.58-18.49m0-2c-131,0-237.29,106.24-237.29,237.29S123.11,490.2,254.16,490.2,491.46,384,491.46,252.91,385.22,15.62,254.16,15.62Z" transform="translate(-1.26)"/><path class="cls-1" d="M254.16,474.83A221.92,221.92,0,0,1,97.25,96,221.91,221.91,0,1,1,411.08,409.83,220.47,220.47,0,0,1,254.16,474.83Z" transform="translate(-1.26)"/><path class="cls-2" d="M254.16,32.49A220.48,220.48,0,0,1,340,456,220.48,220.48,0,0,1,168.37,49.81a219.08,219.08,0,0,1,85.79-17.32m0-3c-123.39,0-223.41,100-223.41,223.42s100,223.42,223.41,223.42,223.42-100,223.42-223.42S377.55,29.49,254.16,29.49Z" transform="translate(-1.26)"/><polygon class="cls-2" points="206.64 397.09 212.14 408.23 224.43 410.01 215.53 418.68 217.63 430.92 206.64 425.14 195.65 430.92 197.75 418.68 188.86 410.01 201.15 408.23 206.64 397.09"/><polygon class="cls-2" points="299.17 397.09 304.67 408.23 316.96 410.01 308.06 418.68 310.16 430.92 299.17 425.14 288.18 430.92 290.28 418.68 281.39 410.01 293.68 408.23 299.17 397.09"/><polygon class="cls-2" points="252.91 397.09 258.4 408.23 270.69 410.01 261.8 418.68 263.9 430.92 252.91 425.14 241.92 430.92 244.02 418.68 235.13 410.01 247.41 408.23 252.91 397.09"/><path class="cls-1" d="M11.64,314.41A252,252,0,0,1,3,248.74a254.84,254.84,0,0,1,3.71-43.33h495a253.5,253.5,0,0,1-4.95,109Z" transform="translate(-1.26)"/><path class="cls-2" d="M500.38,206.91a252.22,252.22,0,0,1-4.84,106H12.79A252.22,252.22,0,0,1,8,206.91H500.38m2.52-3H5.43a255.06,255.06,0,0,0,5.06,112H497.84a255.06,255.06,0,0,0,5.06-112Z" transform="translate(-1.26)"/><path class="cls-2" d="M66.22,273.19l3.74-.45v-28l-3.51-.58V242h5.9c.83,0,2-.06,3.41-.18s2.67-.18,3.52-.18c4.4,0,7.55.71,9.42,2.14s2.81,3.67,2.81,6.73a10.32,10.32,0,0,1-1.77,5.85,8.78,8.78,0,0,1-4.88,3.6,7.72,7.72,0,0,1,2.67,2.63c.83,1.24,1.84,3,3,5.2.93,1.68,1.64,2.91,2.14,3.69s1,1.21,1.42,1.3l1.75.45v2.21H89.67q-.72,0-1.62-1.56c-.6-1-1.39-2.63-2.39-4.79q-1.6-3.56-2.81-5.65a6.43,6.43,0,0,0-2.36-2.67c-3.21,0-5.12,0-5.71-.05v12.06l4.45.45v2.21h-13Zm18.46-16.78a8.35,8.35,0,0,0,1.66-5.63,6.9,6.9,0,0,0-1.69-5c-1.12-1.15-3.07-1.73-5.82-1.73a23.08,23.08,0,0,0-2.88.18q-.92.09-1.17.09v13.95c.44,0,1.37.05,2.79.05h2.56A5.77,5.77,0,0,0,84.68,256.41Z" transform="translate(-1.26)"/><path class="cls-2" d="M100.63,272.34q-2.86-3.55-2.86-9.5A15.18,15.18,0,0,1,99.25,256a10.93,10.93,0,0,1,4.17-4.59,11.51,11.51,0,0,1,6.09-1.62,8.83,8.83,0,0,1,6.51,2.31,9.46,9.46,0,0,1,2.45,6.64,20.92,20.92,0,0,1-.32,4.19H102.67a12.33,12.33,0,0,0,2.07,7.17,6.54,6.54,0,0,0,5.63,2.73,11.79,11.79,0,0,0,3.76-.66,9.29,9.29,0,0,0,3-1.55l.86,2a10.67,10.67,0,0,1-3.87,2.34,14.39,14.39,0,0,1-5.22,1Q103.48,275.89,100.63,272.34Zm12.89-11.84a13.6,13.6,0,0,0,.13-1.93,8.17,8.17,0,0,0-1.23-4.62,4.3,4.3,0,0,0-3.76-1.68,5.1,5.1,0,0,0-4.16,1.89q-1.56,1.89-1.78,6.34Z" transform="translate(-1.26)"/><path class="cls-2" d="M127.11,274.54a9.35,9.35,0,0,1-3.58-4.14,16,16,0,0,1-1.33-6.88,15.4,15.4,0,0,1,1.58-7,12.06,12.06,0,0,1,4.52-5,12.91,12.91,0,0,1,6.95-1.82,16.56,16.56,0,0,1,4.19.49v-8.41l-4.59-.54v-1.94l8.1-.81h.13l1,.72V273.1h2.61v2.07c-1,.21-1.79.38-2.49.5a13.34,13.34,0,0,1-2.23.18,2.67,2.67,0,0,1-1.67-.41,2.19,2.19,0,0,1-.49-1.71v-1.44a10.09,10.09,0,0,1-3.31,2.57,9.66,9.66,0,0,1-4.43,1A9.44,9.44,0,0,1,127.11,274.54Zm10-2.63a6.42,6.42,0,0,0,2.3-1.82V253.62a3.24,3.24,0,0,0-1.69-1,8.94,8.94,0,0,0-2.81-.43,6.72,6.72,0,0,0-5.6,2.68q-2.1,2.68-2.1,8.26,0,4.86,1.85,7.2a5.8,5.8,0,0,0,4.77,2.34A7,7,0,0,0,137.14,271.91Z" transform="translate(-1.26)"/><path class="cls-2" d="M164.82,244.75l-3.51-.54V242h6c1.08,0,2.15,0,3.2-.13q2.43-.18,4.59-.18,6.53,0,9.22,2.43t2.7,7.2a11.51,11.51,0,0,1-1.66,6.25,10.75,10.75,0,0,1-4.61,4.05A15.71,15.71,0,0,1,174,263c-.87,0-1.75,0-2.65-.07s-1.46-.08-1.67-.11v9.9l6.17.49v2.21H161.08v-2.21l3.74-.45Zm9.13,15.8a8,8,0,0,0,5.79-2.16q2.22-2.16,2.22-7.07,0-3.87-1.93-5.56t-6-1.68a27.77,27.77,0,0,0-3.06.18c-.66.06-1.1.09-1.31.09v16A28,28,0,0,0,174,260.55Z" transform="translate(-1.26)"/><path class="cls-2" d="M192.92,272.34q-2.85-3.55-2.86-9.5a15.18,15.18,0,0,1,1.49-6.88,11,11,0,0,1,4.16-4.59,11.57,11.57,0,0,1,6.1-1.62,8.79,8.79,0,0,1,6.5,2.31,9.41,9.41,0,0,1,2.45,6.64,21.06,21.06,0,0,1-.31,4.19H195a12.33,12.33,0,0,0,2.07,7.17,6.53,6.53,0,0,0,5.62,2.73,11.74,11.74,0,0,0,3.76-.66,9.24,9.24,0,0,0,3-1.55l.85,2a10.67,10.67,0,0,1-3.87,2.34,14.39,14.39,0,0,1-5.22,1C197.59,275.89,194.83,274.71,192.92,272.34Zm12.89-11.84a13.59,13.59,0,0,0,.14-1.93,8.09,8.09,0,0,0-1.24-4.62,4.29,4.29,0,0,0-3.76-1.68,5.11,5.11,0,0,0-4.16,1.89c-1,1.26-1.63,3.37-1.78,6.34Z" transform="translate(-1.26)"/><path class="cls-2" d="M237.4,269a12.28,12.28,0,0,1-4.5,5,12.55,12.55,0,0,1-6.84,1.84,16.62,16.62,0,0,1-2.34-.18,10.84,10.84,0,0,1-2-.45l.13,3.78v4.55l4.68.49v2.21H214v-2.21l3.24-.49v-29.7l-3.29-.81v-2.43l6.39-.81h.09l1,.81v2.65a11.7,11.7,0,0,1,3.35-2.52,9.6,9.6,0,0,1,4.48-1,9.46,9.46,0,0,1,4.88,1.3,9.22,9.22,0,0,1,3.58,4A17.3,17.3,0,0,1,237.4,269Zm-13.27-15.41a7.88,7.88,0,0,0-2.3,1.57v17a2.88,2.88,0,0,0,1.6,1,8.72,8.72,0,0,0,2.81.43,6.78,6.78,0,0,0,5.61-2.74q2.13-2.74,2.13-8.28,0-4.86-1.86-7.25a5.84,5.84,0,0,0-4.8-2.38A7.21,7.21,0,0,0,224.13,253.62Z" transform="translate(-1.26)"/><path class="cls-2" d="M265.66,269a12.28,12.28,0,0,1-4.5,5,12.55,12.55,0,0,1-6.84,1.84,16.62,16.62,0,0,1-2.34-.18,10.84,10.84,0,0,1-2-.45l.13,3.78v4.55l4.68.49v2.21H242.22v-2.21l3.24-.49v-29.7l-3.29-.81v-2.43l6.39-.81h.09l.95.81v2.65a11.7,11.7,0,0,1,3.35-2.52,9.6,9.6,0,0,1,4.48-1,9.46,9.46,0,0,1,4.88,1.3,9.22,9.22,0,0,1,3.58,4,17.3,17.3,0,0,1-.23,13.93Zm-13.27-15.41a7.88,7.88,0,0,0-2.3,1.57v17a2.88,2.88,0,0,0,1.6,1,8.72,8.72,0,0,0,2.81.43,6.75,6.75,0,0,0,5.6-2.74q2.14-2.74,2.14-8.28,0-4.86-1.86-7.25a5.84,5.84,0,0,0-4.8-2.38A7.21,7.21,0,0,0,252.39,253.62Z" transform="translate(-1.26)"/><path class="cls-2" d="M273.92,272.34q-2.87-3.55-2.86-9.5a15.18,15.18,0,0,1,1.49-6.88,10.91,10.91,0,0,1,4.16-4.59,11.54,11.54,0,0,1,6.1-1.62,8.81,8.81,0,0,1,6.5,2.31,9.46,9.46,0,0,1,2.45,6.64,21.06,21.06,0,0,1-.31,4.19H276a12.33,12.33,0,0,0,2.07,7.17,6.53,6.53,0,0,0,5.62,2.73,11.79,11.79,0,0,0,3.76-.66,9.35,9.35,0,0,0,3-1.55l.85,2a10.67,10.67,0,0,1-3.87,2.34,14.39,14.39,0,0,1-5.22,1Q276.77,275.89,273.92,272.34Zm12.89-11.84a13.59,13.59,0,0,0,.14-1.93,8.17,8.17,0,0,0-1.24-4.62,4.3,4.3,0,0,0-3.76-1.68,5.1,5.1,0,0,0-4.16,1.89c-1,1.26-1.63,3.37-1.78,6.34Z" transform="translate(-1.26)"/><path class="cls-2" d="M295.72,273.19l3.38-.27v-19l-3.24-.81v-2.43l6.21-.81h.09l1,.81v.81L303,255h.14a11.76,11.76,0,0,1,1.62-2,12.33,12.33,0,0,1,3-2.23,8.15,8.15,0,0,1,4-1,4.16,4.16,0,0,1,1.48.22v5a3.68,3.68,0,0,0-1-.43,5.76,5.76,0,0,0-1.55-.2,11.64,11.64,0,0,0-6.93,2.3v16.2l5.71.36v2.16H295.72Z" transform="translate(-1.26)"/><path class="cls-2" d="M330.78,244.75l-3.51-.54V242h6c1.08,0,2.15,0,3.2-.13q2.43-.18,4.59-.18,6.52,0,9.22,2.43t2.7,7.2a11.51,11.51,0,0,1-1.66,6.25,10.72,10.72,0,0,1-4.62,4.05,15.63,15.63,0,0,1-6.77,1.4c-.87,0-1.75,0-2.65-.07s-1.46-.08-1.67-.11v9.9l6.17.49v2.21H327v-2.21l3.74-.45Zm9.13,15.8a7.94,7.94,0,0,0,5.78-2.16q2.24-2.16,2.23-7.07,0-3.87-1.93-5.56t-6-1.68a27.77,27.77,0,0,0-3.06.18c-.66.06-1.1.09-1.31.09v16A28,28,0,0,0,339.91,260.55Z" transform="translate(-1.26)"/><path class="cls-2" d="M359.62,253.89l-3.42-.81v-2.39l7-.85h.09l1,.81v22.18l3.6.36v2.21H356v-2.21l3.64-.4Zm-.36-8.78a3,3,0,0,1-.72-2.07,3.34,3.34,0,0,1,.88-2.38,3.13,3.13,0,0,1,2.41-.95,2.86,2.86,0,0,1,2.25.81,3,3,0,0,1,.72,2.07,3.35,3.35,0,0,1-.88,2.43,3.27,3.27,0,0,1-2.45.9h-.05A2.74,2.74,0,0,1,359.26,245.11Z" transform="translate(-1.26)"/><path class="cls-2" d="M375.64,253.3l-.81,4.28h-2.74v-7.16h19.12l.9,1.94-13.23,17.73-3.1,2.79,12.1-.41,1.89-5,2.61.32-.81,7.65h-20.2l-.95-2,13.46-17.55,3-2.88Z" transform="translate(-1.26)"/><path class="cls-2" d="M400.57,253.3l-.81,4.28H397v-7.16h19.13l.9,1.94-13.23,17.73-3.1,2.79,12.1-.41,1.89-5,2.61.32-.81,7.65H396.3l-.95-2,13.45-17.55,3-2.88Z" transform="translate(-1.26)"/><path class="cls-2" d="M425.18,262.41a26.44,26.44,0,0,1,10.71-2.13V259a9.89,9.89,0,0,0-.45-3.33,3.11,3.11,0,0,0-1.55-1.78,7,7,0,0,0-3.13-.56,12,12,0,0,0-4.11.65,28.86,28.86,0,0,0-3.63,1.6l-1.12-2.34a12.59,12.59,0,0,1,2.16-1.31,21.91,21.91,0,0,1,3.64-1.44,14.15,14.15,0,0,1,4.14-.63,12.05,12.05,0,0,1,5.07.88,5.21,5.21,0,0,1,2.67,2.81,13.68,13.68,0,0,1,.81,5.18v14.44h2.66v2c-.6.15-1.36.3-2.27.45a15.26,15.26,0,0,1-2.41.23,2.71,2.71,0,0,1-1.71-.39,2.22,2.22,0,0,1-.45-1.68v-1.49a15.62,15.62,0,0,1-3.31,2.48,8.71,8.71,0,0,1-4.43,1.12,7.87,7.87,0,0,1-5.38-1.87,6.75,6.75,0,0,1-2.14-5.37Q421,264.42,425.18,262.41Zm7.92,9.7a14.46,14.46,0,0,0,2.79-1.71v-7.74c-3.27,0-5.73.5-7.4,1.51a4.51,4.51,0,0,0-2.5,3.94,4.72,4.72,0,0,0,1.2,3.57,4.4,4.4,0,0,0,3.21,1.15A6.49,6.49,0,0,0,433.1,272.11Z" transform="translate(-1.26)"/><path class="cls-2" d="M296.35,133.2a97.36,97.36,0,0,0-14.06-34.06A98.5,98.5,0,0,0,262,76.55l-50,75.18Z" transform="translate(-1.26)"/><path class="cls-1" d="M220.28,140.72a6.52,6.52,0,1,0,6.22-9.13l11.5-16.9a8.2,8.2,0,1,0,8.24-12.1l10.69-15.7a82.2,82.2,0,0,1,28.73,47.36l-72.22,16.51Z" transform="translate(-1.26)"/><path class="cls-2" d="M257,87.62a81.58,81.58,0,0,1,28,46.25L214.57,150l5.65-8.29a7,7,0,1,0,7.16-10.53L238,115.61a8.7,8.7,0,1,0,9.11-13.38l10-14.61m-.21-1.46L245.35,103a7.69,7.69,0,1,1-7.28,10.68l-12.55,18.43a6,6,0,1,1-5.09,7.48l-8.12,11.92,73.93-16.9a81.19,81.19,0,0,0-11.92-29.21,82,82,0,0,0-17.49-19.26Z" transform="translate(-1.26)"/><circle class="cls-2" cx="267.23" cy="123.25" r="7"/><circle class="cls-2" cx="251.65" cy="134.7" r="5.17"/><circle class="cls-2" cx="265.65" cy="114.03" r="5.17"/></svg>